<?xml version="1.0" encoding="UTF-8" standalone="no"?><!DOCTYPE svg PUBLIC "-//W3C//DTD SVG 1.1//EN" "http://www.w3.org/Graphics/SVG/1.1/DTD/svg11.dtd"><svg width="100%" height="100%" viewBox="0 0 1325 2025" version="1.1" xmlns="http://www.w3.org/2000/svg" xmlns:xlink="http://www.w3.org/1999/xlink" xml:space="preserve" xmlns:serif="http://www.serif.com/" style="fillRule:evenodd;clipRule:evenodd;stroke-linejoin:round;stroke-miterlimit:2;"><path d="M921.038,287.849c-0.584,2.562 -0.963,5.166 -1.134,7.791l-204.021,117.696l-49.587,-28.546l-52.867,69.204l82.879,59.071c13.713,9.775 32.363,9.321 45.584,-1.108l210.379,-165.971c5.537,2.05 11.4,3.1 17.304,3.1c27.35,0 49.854,-22.504 49.854,-49.854c0,-27.346 -22.504,-49.85 -49.854,-49.85c-23.067,-0 -43.267,16.008 -48.537,38.467Z" style="fill:#ffb6b6;fillRule:nonzero;"/><path d="M713.054,400.34c-1.308,-6.071 -5.204,-11.279 -10.658,-14.25l-94.192,-51.321c-10.3,-7.77 -22.854,-11.979 -35.758,-11.979c-32.558,0 -59.354,26.796 -59.354,59.354c-0,18.496 8.646,35.971 23.354,47.188l75.492,76.692c4.012,4.079 9.504,6.379 15.229,6.379c6.7,-0 13.025,-3.154 17.062,-8.504l64.996,-86.175c3.746,-4.959 5.142,-11.313 3.829,-17.384Z" style="fill:#3f3d56;fillRule:nonzero;"/><path d="M544.775,101.982c-13.55,-43.188 -44.367,-82.804 -86.987,-97.404c-42.625,-14.6 -105.038,7.641 -137.08,39.575c-58.612,58.416 -72.916,259.096 -32.645,322.508c8.008,-0.421 35.645,-0.737 43.754,-1.037l11.466,-38.225l0,37.845c63.275,-1.954 129.155,-0.729 195.067,0.538c5.904,-44.9 19.979,-220.608 6.425,-263.8Z" style="fill:#2f2e41;fillRule:nonzero;"/><path d="M562.913,1914.89l57.712,0l27.454,-222.612l-85.179,0.004l0.013,222.608Z" style="fill:#ffb6b6;fillRule:nonzero;"/><path d="M57.688,1879l55.845,14.554l82.721,-208.488l-82.425,-21.479l-56.141,215.413Z" style="fill:#ffb6b6;fillRule:nonzero;"/><path d="M375.738,547.64l-13.08,34l2.617,34l255.933,88.646l-12.7,-148.8l-28.766,-34.004l-204.004,26.158Z" style="fill:#ffb6b6;fillRule:nonzero;"/><circle cx="456.658" cy="150.257" r="91.408" style="fill:#ffb7b7;"/><path d="M519.467,31.224c-18,-10.975 -38.684,-16.78 -59.767,-16.78c-62.983,0 -114.812,51.83 -114.812,114.813c-0,0.725 0.008,1.446 0.02,2.171c49.83,12.733 102.93,18.062 159.196,3.066l12.863,-31.483l7.583,31.504c17.217,12.113 33.833,12.088 49.846,-0.062c1.383,-41.688 -19.583,-81.088 -54.929,-103.229Z" style="fill:#2f2e41;fillRule:nonzero;"/><path d="M537.092,2024.47l40.954,-0l7.308,-38.663l18.725,38.663l108.617,-0c13.396,-0 24.417,-11.021 24.417,-24.417c-0,-8.013 -3.95,-15.538 -10.546,-20.092l-86.738,-59.904l0,-39.087l-91.233,5.445l-11.504,138.055Z" style="fill:#2f2e41;fillRule:nonzero;"/><path d="M0,1977.21l39.629,10.329l16.825,-35.571l8.367,42.138l105.104,27.396c2.013,0.525 4.079,0.791 6.158,0.791c13.396,0 24.417,-11.02 24.417,-24.416c0,-5.85 -2.104,-11.513 -5.925,-15.942l-68.821,-79.846l9.859,-37.825l-89.659,-17.746l-45.954,130.692Z" style="fill:#2f2e41;fillRule:nonzero;"/><path d="M64.767,1739.01l169.171,-347.7l53.108,-423.192c-36.617,-68 31.383,-206.371 31.383,-206.371l0,-58.095l263.421,49.695c53.875,146.95 80.004,302.63 77.05,459.117l-10.612,562.542l3.329,-0c11.429,-0 20.833,9.404 20.833,20.833c0,11.425 -9.404,20.833 -20.833,20.833l-104.167,0c-11.429,0 -20.833,-9.408 -20.833,-20.833c-0,-11.429 9.404,-20.833 20.833,-20.833l2.688,-0l-74.78,-715.654l-86.95,353.158l-210.125,325.162c10.759,0.838 19.167,9.925 19.167,20.717c0,11.4 -9.379,20.783 -20.779,20.783l-104.242,0c-11.416,0 -20.812,-9.395 -20.812,-20.812c-0,-8.521 5.229,-16.217 13.15,-19.35Z" style="fill:#2f2e41;fillRule:nonzero;"/><path d="M294.617,797.361c1.771,-6.954 7.858,-12.012 15.021,-12.475c3.47,-39.7 26.412,-294.287 27.287,-301.758l0.033,-0.317l6.642,-141.904c0.496,-10.621 8.988,-19.267 19.596,-19.963l35.083,-2.291c0.996,-0.034 1.796,-0.863 1.796,-1.854c0,-16.188 13.321,-29.509 29.504,-29.509l103.884,0c13.854,0.009 25.67,10.438 27.395,24.184c0.096,0.95 0.917,1.67 1.867,1.65l0.013,-0c24.287,-0.5 45.512,17 49.65,40.933c14.2,82.629 42.662,270.167 28.591,374.429c-4.9,36.292 -2.675,90.879 -0.821,121.246c0.371,5.925 -1.633,11.762 -5.566,16.208c8.558,2.467 13.696,11.392 11.529,20.034l-0.004,-0c-2.234,8.862 -11.367,14.32 -20.234,12.087l-319.179,-80.462c-8.866,-2.238 -14.325,-11.371 -12.087,-20.238Z" style="fill:#3f3d56;fillRule:nonzero;"/><path d="M575.354,314.54c0.092,-14.441 10.7,-26.829 24.954,-29.146l426.488,-70.033c4.087,-0.679 8.275,-0.492 12.287,0.546l99.95,25.842l57.35,14.845l105.834,27.359c13.096,3.404 22.312,15.316 22.316,28.85l0,349.55c-0.066,13.987 -9.916,26.154 -23.583,29.121l-434.408,92.429c-2.038,0.437 -4.121,0.654 -6.209,0.646c-3.037,0.004 -6.062,-0.455 -8.962,-1.367l-258.092,-81.504c-12.471,-3.892 -20.971,-15.584 -20.829,-28.65l2.904,-358.488Z" style="fill:#fff;fillRule:nonzero;"/><path d="M1031.62,241.028c0.308,-0 0.621,0.041 0.921,0.121l263.133,68.05c1.638,0.42 2.788,1.908 2.788,3.6l-0,349.545c-0.009,1.746 -1.238,3.267 -2.946,3.638l-434.408,92.429c-0.63,0.129 -1.28,0.1 -1.896,-0.096l-258.096,-81.5c-1.558,-0.487 -2.617,-1.946 -2.596,-3.579l2.892,-358.487c0.012,-1.805 1.337,-3.35 3.116,-3.638l426.488,-70.033c0.2,-0.034 0.4,-0.046 0.604,-0.05Z" style="fill:#6c63ff;fillRule:nonzero;"/><path d="M575.354,314.54c0.092,-14.441 10.7,-26.829 24.954,-29.146l426.488,-70.033c4.087,-0.679 8.275,-0.492 12.287,0.546l99.95,25.842l57.35,14.845l105.834,27.359c13.096,3.404 22.312,15.316 22.316,28.85l0,349.55c-0.066,13.987 -9.916,26.154 -23.583,29.121l-434.408,92.429c-2.038,0.437 -4.121,0.654 -6.209,0.646c-3.037,0.004 -6.062,-0.455 -8.962,-1.367l-258.092,-81.504c-12.471,-3.892 -20.971,-15.584 -20.829,-28.65l2.904,-358.488Zm20.163,380.038l258.091,81.504c3.68,1.146 7.596,1.337 11.371,0.546l434.429,-92.425c10.246,-2.238 17.634,-11.363 17.68,-21.85l-0,-349.55c-0.009,-9.35 -5.875,-17.75 -14.65,-20.979c-0.68,-0.255 -1.38,-0.471 -2.084,-0.646l-111.966,-28.946l-66.213,-17.129l-84.954,-21.971c-1.821,-0.488 -3.7,-0.729 -5.588,-0.721c-1.212,0 -2.425,0.1 -3.62,0.296l-426.492,70.037c-6.95,1.142 -12.975,5.496 -16.233,11.742c-1.613,3.125 -2.463,6.588 -2.484,10.104l-2.904,358.488c-0.112,9.8 6.263,18.575 15.617,21.5Z" style="fill:#3f3d56;fillRule:nonzero;"/><path d="M585.288,304.486c0.287,0.192 0.608,0.333 0.941,0.421l125.446,33.912l39.054,10.555l111.071,30.012c0.317,0.079 0.642,0.121 0.967,0.125c0.225,-0.004 0.45,-0.021 0.671,-0.05l447.862,-81.654l1.492,-0.271c1.758,-0.329 3.046,-1.883 3.046,-3.671c-0,-2.05 -1.684,-3.737 -3.734,-3.737c-0.221,-0 -0.437,0.021 -0.654,0.058l-9.012,1.638l-439.521,80.141l-95.729,-25.871l-53.55,-14.475l-123.509,-33.391l-1.962,-0.521c-1.742,-0.458 -3.584,0.404 -4.346,2.037c-0.096,0.188 -0.171,0.388 -0.221,0.596c-0.421,1.6 0.271,3.296 1.688,4.146Z" style="fill:#3f3d56;fillRule:nonzero;"/><path d="M859.046,785.419c2.029,0 3.704,-1.662 3.721,-3.691l3.725,-405.909c0.016,-2.041 -1.646,-3.737 -3.692,-3.758l-0.033,0c-2.029,0 -3.704,1.663 -3.721,3.692l-3.725,405.908c-0.021,2.042 1.646,3.738 3.687,3.758l0.038,0Z" style="fill:#3f3d56;fillRule:nonzero;"/><path d="M711.675,736.04l39.054,10.55l16.459,-400.496l419.983,-83.566c0.412,-0.071 0.817,-0.171 1.217,-0.296c3.225,-0.917 6.045,-2.908 7.995,-5.638l-57.35,-14.845l-16.858,3.354l-398.508,79.271c-4.238,0.833 -7.904,3.487 -10.029,7.245c-1.242,2.163 -1.938,401.838 -1.963,404.421Z" style="fill:#3f3d56;fillRule:nonzero;"/><path d="M729.171,507.694c-1.996,1.709 -3.854,3.571 -5.558,5.571l-233.946,-27.321l-22.75,-52.504l-83.725,23.984l31.246,96.854c5.17,16.029 20.408,26.796 37.241,26.316l267.854,-7.616c9.188,14.125 24.938,22.671 41.788,22.671c27.35,-0 49.854,-22.505 49.854,-49.855c0,-27.35 -22.504,-49.854 -49.854,-49.854c-11.763,0 -23.158,4.167 -32.15,11.754Z" style="fill:#ffb6b6;fillRule:nonzero;"/><path d="M495.15,473.824c2.575,-5.65 2.558,-12.155 -0.046,-17.796l-44.95,-97.392c-7.383,-25.221 -30.683,-42.675 -56.962,-42.675c-32.559,0 -59.354,26.792 -59.354,59.354c-0,5.538 0.775,11.05 2.304,16.371l14.804,106.592c1.458,10.516 10.55,18.429 21.167,18.429c2.033,-0 4.058,-0.292 6.008,-0.863l103.583,-30.354c5.963,-1.746 10.879,-6.008 13.446,-11.666Z" style="fill:#3f3d56;fillRule:nonzero;"/><path d="M1147.45,560.419c0.462,0 0.929,-0.054 1.379,-0.154l129.167,-29.166c2.837,-0.646 4.866,-3.188 4.866,-6.096c0,-3.429 -2.82,-6.25 -6.25,-6.25c-0.458,-0 -0.916,0.05 -1.366,0.15l-129.167,29.166c-2.842,0.642 -4.875,3.188 -4.875,6.1c0,3.425 2.821,6.246 6.246,6.25Z" style="fill:#fff;fillRule:nonzero;"/></svg>