<?xml version="1.0" encoding="UTF-8" standalone="no"?><!DOCTYPE svg PUBLIC "-//W3C//DTD SVG 1.1//EN" "http://www.w3.org/Graphics/SVG/1.1/DTD/svg11.dtd"><svg width="100%" height="100%" viewBox="0 0 723 673" version="1.1" xmlns="http://www.w3.org/2000/svg" xmlns:xlink="http://www.w3.org/1999/xlink" xml:space="preserve" xmlns:serif="http://www.serif.com/" style="fillRule:evenodd;clipRule:evenodd;stroke-linejoin:round;stroke-miterlimit:2;"><rect id="Artboard2" x="0" y="0" width="722.894" height="672.743" style="fill:none;"/><g><path d="M109.75,466.223l-0,-257.849l228.943,132.181l0,257.848l-47.279,-27.296l-0,-102.3l-134.152,-77.453l0,102.3l-47.512,-27.431Zm181.664,-99.454l-134.152,-77.453l0,48.789l134.152,77.453l-0,-48.789Z" style="fill:#222;fillRule:nonzero;"/><path d="M395.323,604.976l-22.642,12.558l-23.228,-13.311l-0,-260.861l22.495,10.75l23.375,-11.274l-0,262.138Z" style="fill:#5b59fb;fillRule:nonzero;"/><path d="M569.744,245.139l42.211,-24.37l0,259.312l-42.211,24.371l-0,-125.831l-39.728,148.768l-41.591,24.012l-39.728,-102.894l0,125.831l-42.211,24.371l-0,-259.313l42.211,-24.37l60.42,159.007l60.627,-228.894Z" style="fill:#222;fillRule:nonzero;"/><path d="M371.97,338.543l-256.852,-148.294l48.302,-27.888l203.548,117.519l58.446,-33.743l-203.549,-117.519l127.149,-73.41l256.853,148.294l-48.54,28.025l-203.81,-117.67l-29.538,17.054l203.81,117.67l-155.819,89.962Z" style="fill:#222;fillRule:nonzero;"/><path d="M527.638,248.668l-0,74.873l-21.938,-12.532l-25.576,39.964l0,-74.873l47.514,-27.432Z" style="fill:#222;"/></g></svg>